<?xml version="1.0" standalone="no"?>
<!DOCTYPE svg PUBLIC "-//W3C//DTD SVG 20010904//EN"
 "http://www.w3.org/TR/2001/REC-SVG-20010904/DTD/svg10.dtd">
<svg version="1.0" xmlns="http://www.w3.org/2000/svg"
 width="800.000000pt" height="679.000000pt" viewBox="0 0 800.000000 679.000000"
 preserveAspectRatio="xMidYMid meet">

<g transform="translate(0.000000,679.000000) scale(0.100000,-0.100000)"
fill="#000000" stroke="none">
<path d="M15 3398 c4 -1866 9 -3395 11 -3397 2 -2 1653 0 3669 4 l3665 8 0
958 0 959 320 0 320 0 0 600 0 600 -117 1 c-65 0 -333 0 -595 -1 l-478 -1 0
1824 0 1824 -2347 6 c-1292 4 -2822 7 -3402 7 l-1054 0 8 -3392z"/>
</g>
</svg>
