<?xml version="1.0" standalone="no"?>
<!DOCTYPE svg PUBLIC "-//W3C//DTD SVG 20010904//EN"
 "http://www.w3.org/TR/2001/REC-SVG-20010904/DTD/svg10.dtd">
<svg version="1.0" xmlns="http://www.w3.org/2000/svg"
 width="685.000000pt" height="800.000000pt" viewBox="0 0 685.000000 800.000000"
 preserveAspectRatio="xMidYMid meet">

<g transform="translate(0.000000,800.000000) scale(0.100000,-0.100000)"
fill="#000000" stroke="none">
<path d="M0 6170 l0 -1830 160 0 160 0 0 -1830 0 -1830 545 0 545 0 0 -340 0
-340 1885 0 1885 0 0 340 0 340 835 0 835 0 0 1830 0 1830 -405 0 -405 0 0
1390 0 1390 -1180 0 -1180 0 0 440 0 440 -1840 0 -1840 0 0 -1830z"/>
</g>
</svg>
